<svg xmlns="http://www.w3.org/2000/svg" xmlns:xlink="http://www.w3.org/1999/xlink" version="1.1" id="Your_Icon" x="0px" y="0px" width="100px" height="100px" viewBox="0 0 100 100" enable-background="new 0 0 100 100" xml:space="preserve">
<path d="M50.44,3.447c-25.864,0-46.905,21.042-46.905,46.906c0,25.863,21.042,46.905,46.905,46.905  c25.862,0,46.903-21.042,46.903-46.905C97.344,24.489,76.303,3.447,50.44,3.447z M92.062,36.412L46.253,23.878L62.047,8.016  C76.152,11.888,87.435,22.632,92.062,36.412z M53.437,76.674L32.99,70.8l-6.819-26.752l17.648-17.725l25.324,6.929l5.935,21.233  L53.437,76.674z M58.606,7.22L25.308,40.662l-5.53-21.693c7.92-7.739,18.74-12.522,30.662-12.522  C53.231,6.447,55.959,6.72,58.606,7.22z M17.341,21.554L29.649,69.84L8.653,63.809c-1.37-4.243-2.118-8.763-2.118-13.456  C6.535,39.34,10.62,29.27,17.341,21.554z M9.941,67.299L51.06,79.111L38.037,92.462C25.337,88.715,15.013,79.376,9.941,67.299z   M50.44,94.258c-3.101,0-6.125-0.328-9.046-0.942l34.617-35.491l6.329,22.646C74.331,88.95,62.997,94.258,50.44,94.258z   M84.699,77.764L72.516,34.174l20.536,5.619c0.839,3.384,1.292,6.919,1.292,10.56C94.344,60.716,90.727,70.246,84.699,77.764z"/>
</svg>