<svg xmlns="http://www.w3.org/2000/svg" xmlns:xlink="http://www.w3.org/1999/xlink" version="1.1" id="Layer_1" x="0px" y="0px" width="100px" height="100px" viewBox="0 0 100 100" enable-background="new 0 0 100 100" xml:space="preserve">
<g id="Camera">
	<path fill="#000000" d="M57.148,84.471c-15.725,0-28.518-12.793-28.518-28.518s12.792-28.517,28.518-28.517   c15.725,0,28.517,12.792,28.517,28.517S72.873,84.471,57.148,84.471z M57.148,29.408c-14.638,0-26.546,11.908-26.546,26.545   c0,14.637,11.908,26.545,26.546,26.545S83.693,70.59,83.693,55.953C83.693,41.316,71.786,29.408,57.148,29.408z"/>
	<path fill="#000000" d="M57.148,79.717c-13.104,0-23.764-10.66-23.764-23.764s10.661-23.764,23.764-23.764   s23.764,10.66,23.764,23.764S70.252,79.717,57.148,79.717z M57.148,34.162c-12.017,0-21.792,9.775-21.792,21.792   c0,12.016,9.775,21.791,21.792,21.791c12.016,0,21.791-9.775,21.791-21.791C78.939,43.937,69.164,34.162,57.148,34.162z"/>
	<path fill="#000000" d="M57.148,72.074c-8.89,0-16.122-7.23-16.122-16.121c0-8.89,7.232-16.123,16.122-16.123   c8.89,0,16.122,7.232,16.122,16.123C73.271,64.844,66.038,72.074,57.148,72.074z M57.148,41.168   c-8.153,0-14.785,6.633-14.785,14.785c0,8.15,6.632,14.783,14.785,14.783c8.151,0,14.783-6.633,14.783-14.783   C71.932,47.801,65.3,41.168,57.148,41.168z"/>
	<path fill="#000000" d="M84.844,62.021v-1.971c2.015,0,4.416-0.768,4.416-4.416c0-3.006-2.491-3.637-4.58-3.637v-1.972   c4.103,0,6.552,2.097,6.552,5.608C91.231,59.635,88.844,62.021,84.844,62.021z"/>
	<path fill="#000000" d="M84.68,37.69c-1.563,0-2.835-1.271-2.835-2.835c0-1.563,1.271-2.834,2.835-2.834   c1.563,0,2.834,1.271,2.834,2.834C87.514,36.418,86.242,37.69,84.68,37.69z M84.68,33.992c-0.476,0-0.863,0.387-0.863,0.863   s0.388,0.863,0.863,0.863s0.862-0.387,0.862-0.863S85.155,33.992,84.68,33.992z"/>
	<path fill="#000000" d="M91.575,33.173c-2.021-2.671-5.784-3.879-8.808-4.849c-1.615-0.519-3.285-1.055-3.841-1.61   c-1.638-1.637-5.012-8.612-5.941-10.999c-0.978-2.514-5.714-3.586-15.837-3.586c-3.802,0-12.836,0.192-14.618,1.973   c-0.634,0.634-1.882,2.782-3.864,6.246c-0.508,0.889-1.07,1.871-1.566,2.715c-1.203-0.896-3.726-1.73-9.048-1.318   c-4.835,0.375-7.657,1.253-8.627,2.685c-0.36,0.531-0.378,1.002-0.342,1.278v2.703c-4.04,0.938-7.197,1.935-7.42,2.005   l-0.155,0.064c-5.766,2.995-5.812,11.447-5.809,11.733C4.132,64.299,5.686,83.988,5.702,84.184l0.029,0.361l0.257,0.256   c2.037,2.037,5.166,3.07,9.301,3.07c4.502,0,8.582-1.23,8.753-1.283l0.292-0.09l1.61-2.016c6.905,0.168,21.358,0.291,34.05,0.291   c6.963,0,19.335-0.039,23.961-0.305c8.832-0.51,9.826-6.482,9.917-7.248C95.997,64.432,95.06,37.775,91.575,33.173z M21.056,25.542   c0.151-0.213,1.238-1.373,7.149-1.831c0.948-0.074,1.784-0.105,2.524-0.105c3.692,0,4.941,0.803,5.335,1.15   c-0.096,0.142-0.18,0.259-0.231,0.314c-0.1,0.1-0.187,0.197-0.272,0.291c-0.459,0.51-0.893,0.991-7.078,1.478   c-2.412,0.189-5.008,0.629-7.427,1.136V25.542z M91.912,77.01c-0.016,0.205-0.483,5.053-8.07,5.49   c-3.393,0.195-11.861,0.303-23.848,0.303c-12.986,0-27.813-0.131-34.489-0.305l-0.49-0.012l-1.834,2.297   c-0.981,0.27-4.345,1.117-7.892,1.117c-3.412,0-5.983-0.758-7.65-2.25c-0.205-2.813-1.41-21.037,0.032-41.37   c0-0.076,0.036-7.524,4.674-10.012c0.929-0.29,9.54-2.933,16.294-3.463c6.658-0.524,7.455-1.089,8.388-2.124   c0.063-0.07,0.127-0.142,0.202-0.216c0.451-0.451,1.306-1.912,3.151-5.138c1.289-2.253,3.053-5.338,3.542-5.828   c0.407-0.363,3.712-1.399,13.227-1.399c11.818,0,13.728,1.629,14,2.329c0.784,2.018,4.309,9.604,6.384,11.679   c0.894,0.894,2.544,1.423,4.632,2.094c2.76,0.885,6.193,1.987,7.84,4.162C92.902,38.193,94.068,64.043,91.912,77.01z"/>
</g>
</svg>