<svg xmlns="http://www.w3.org/2000/svg" xmlns:xlink="http://www.w3.org/1999/xlink" version="1.1" width="96" height="96" viewBox="0 0 96 96">
<path d="M48 4c24.256 0 44 19.744 44 44s-19.744 44-44 44c-24.26 0-44-19.744-44-44s19.74-44 44-44zM48 0c-26.508 0-48 21.492-48 48s21.492 48 48 48 48-21.492 48-48-21.492-48-48-48v0z" fill="#000000"/>
	<path d="M64.632 81.936c-0.728 0-1.416-0.4-1.776-1.084-0.508-0.98-0.128-2.188 0.848-2.7 5.764-3.008 10.532-7.584 13.784-13.236 0.552-0.948 1.776-1.272 2.732-0.736 0.956 0.552 1.288 1.772 0.74 2.736-3.632 6.304-8.956 11.416-15.396 14.772-0.308 0.176-0.62 0.248-0.932 0.248z" fill="#000000"/>
	<path d="M12 50c-1.104 0-2-0.896-2-2 0-20.952 17.048-38 38-38 1.104 0 2 0.896 2 2s-0.896 2-2 2c-18.748 0-34 15.252-34 34 0 1.104-0.896 2-2 2z" fill="#000000"/>
	<path d="M48 74c-14.336 0-26-11.664-26-26s11.664-26 26-26 26 11.664 26 26-11.664 26-26 26zM48 26c-12.132 0-22 9.872-22 22s9.868 22 22 22 22-9.872 22-22-9.868-22-22-22z" fill="#000000"/>
</svg>