<svg xmlns="http://www.w3.org/2000/svg" xmlns:xlink="http://www.w3.org/1999/xlink" version="1.1" id="Layer_1" x="0px" y="0px" width="100px" height="100px" viewBox="0 0 100 100" enable-background="new 0 0 100 100" xml:space="preserve">
<g id="Lens">
	<path fill="#000000" d="M80.428,23.748C80.134,23.243,72.979,11.375,50,11.375S19.866,23.243,19.573,23.748   c-0.088,0.152-0.135,0.326-0.135,0.502v3.771l0.313,14.688c0.003,0.159,0.045,0.315,0.121,0.455l1.879,3.465V63.25   c0,0.136,0.027,0.27,0.081,0.394l0.856,1.999v2.107c0,1.962,1.502,6.308,4.425,7.118c0.114,1.601,0.474,6.127,0.951,7.4   c0.825,2.198,6.471,6.356,21.937,6.356c15.466,0,21.111-4.158,21.937-6.356c0.473-1.261,0.829-5.708,0.949-7.399   c2.924-0.81,4.427-5.157,4.427-7.119v-2.107l0.856-1.999c0.054-0.124,0.081-0.258,0.081-0.394V46.629l1.879-3.465   c0.076-0.14,0.117-0.296,0.121-0.455L80.563,28v-3.75C80.563,24.074,80.516,23.9,80.428,23.748z M78.563,27.979l-0.307,14.445   l-1.885,3.475c-0.079,0.146-0.121,0.31-0.121,0.477v16.67l-0.856,1.999c-0.054,0.124-0.081,0.258-0.081,0.394v2.313   c0,1.35-1.334,5.25-3.396,5.25c-0.553,0-1,0.447-1,1l0.002,0.35c-0.157,2.328-0.528,6.345-0.855,7.216   c-0.4,1.069-4.98,5.06-20.063,5.06s-19.663-3.99-20.063-5.06c-0.327-0.87-0.698-4.888-0.854-7.148V74c0-0.553-0.448-1-1-1   c-2.062,0-3.396-3.9-3.396-5.25v-2.313c0-0.136-0.027-0.27-0.081-0.394l-0.856-1.999v-16.67c0-0.167-0.042-0.331-0.121-0.477   l-1.884-3.475L21.438,28v-3.457c1.05-1.551,8.383-11.168,28.563-11.168c20.101,0,27.507,9.628,28.563,11.17V27.979z"/>
	<path fill="#000000" d="M49.996,77.426c-13.874,0-19.206-1.626-21.213-2.237c-0.293-0.09-0.625-0.191-0.725-0.201l0.021-1.999   c0.346,0,0.7,0.108,1.287,0.287c1.93,0.588,7.054,2.15,20.63,2.15c13.672,0,18.775-1.571,20.696-2.163   c0.557-0.171,0.893-0.274,1.221-0.274v2c-0.059,0.01-0.363,0.104-0.632,0.186C69.281,75.79,63.969,77.426,49.996,77.426z"/>
	<path fill="#000000" d="M49.996,56.331c-16.844,0-23.317-2.642-25.754-3.636c-0.35-0.144-0.747-0.305-0.868-0.323l0.038-1.998   c0.436,0,0.868,0.177,1.585,0.469c2.338,0.954,8.548,3.488,24.999,3.488c16.568,0,22.752-2.549,25.08-3.508   c0.68-0.28,1.09-0.449,1.504-0.449v2c-0.058,0.017-0.421,0.166-0.742,0.299C73.41,53.673,66.96,56.331,49.996,56.331z"/>
	<path fill="#000000" d="M49.996,33.467c-18.748,0-25.947-2.938-28.658-4.043c-0.402-0.164-0.857-0.35-0.995-0.367l0.026-1.999   c0.463,0,0.938,0.193,1.724,0.514c2.611,1.065,9.547,3.895,27.902,3.895c18.487,0,25.394-2.846,27.994-3.917   c0.77-0.317,1.193-0.492,1.632-0.492v2c-0.085,0.018-0.502,0.189-0.87,0.341C76.052,30.512,68.88,33.467,49.996,33.467z"/>
	<path fill="#000000" d="M49.996,68.113c-16.844,0-23.317-2.642-25.754-3.636c-0.35-0.144-0.747-0.305-0.868-0.323l0.038-1.998   c0.436,0,0.868,0.177,1.585,0.469c2.338,0.954,8.548,3.488,24.999,3.488c16.568,0,22.752-2.549,25.08-3.508   c0.68-0.28,1.09-0.449,1.504-0.449v2c-0.058,0.017-0.421,0.166-0.742,0.299C73.41,65.455,66.96,68.113,49.996,68.113z"/>
	<path fill="#000000" d="M24.093,28.561c0,0,0.184-0.103,0.529-0.296c0.356-0.17,0.878-0.464,1.559-0.753   c0.674-0.287,1.493-0.669,2.453-1.007c0.957-0.343,2.04-0.756,3.243-1.088c1.2-0.34,2.504-0.741,3.904-1.019   c1.399-0.28,2.875-0.641,4.423-0.828c1.548-0.176,3.146-0.454,4.785-0.561c1.64-0.105,3.31-0.149,4.979-0.204   c0.853,0.038,1.706,0.075,2.555,0.113c0.805,0.029,1.605,0.101,2.399,0.15c1.59,0.087,3.149,0.298,4.662,0.435   c1.524,0.146,3.056,0.523,4.464,0.792c1.421,0.265,2.75,0.593,3.968,0.901c1.219,0.292,2.3,0.7,3.266,1.023   c0.966,0.314,1.794,0.65,2.475,0.912c0.687,0.265,1.215,0.546,1.576,0.705c0.357,0.178,0.548,0.273,0.548,0.273   c0.448,0.223,0.63,0.767,0.407,1.214c-0.123,0.248-0.345,0.414-0.594,0.476l-0.159,0.039c0,0-0.856,0.207-2.292,0.433   c-0.728,0.122-1.61,0.294-2.602,0.394c-0.496,0.061-1.023,0.125-1.579,0.192c-0.554,0.075-1.13,0.067-1.728,0.157   c-1.195,0.145-2.479,0.297-3.817,0.375c-1.354,0.097-2.71,0.107-4.212,0.181c-1.521,0.097-3.09,0.172-4.683,0.18   c-0.796,0.001-1.6,0.033-2.404,0.004c-0.748-0.015-1.498-0.03-2.248-0.045c-1.548,0.012-3.096,0.037-4.625-0.023   c-1.529,0.002-3.04-0.008-4.51-0.075c-1.469-0.039-2.896-0.066-4.261-0.151c-1.362-0.063-2.66-0.144-3.869-0.251   c-1.202-0.063-2.316-0.167-3.315-0.282c-0.991-0.075-1.869-0.201-2.597-0.296c-0.716-0.073-1.292-0.194-1.687-0.248   c-0.403-0.067-0.619-0.104-0.619-0.104l-0.099-0.016c-0.499-0.083-0.835-0.555-0.751-1.054   C23.684,28.925,23.861,28.691,24.093,28.561z"/>
	<rect x="49.002" y="58.063" fill="#000000" width="2" height="6.478"/>
	<rect x="29.002" y="56.679" fill="#000000" width="2" height="6.478"/>
	<rect x="69.002" y="56.679" fill="#000000" width="2" height="6.478"/>
</g>
</svg>