<svg xmlns="http://www.w3.org/2000/svg" xmlns:xlink="http://www.w3.org/1999/xlink" version="1.1" id="Layer_1" x="0px" y="0px" width="100px" height="100px" viewBox="0 0 100 100" enable-background="new 0 0 100 100" xml:space="preserve">
<g id="Timer">
	<path fill="#000000" d="M50,22.372c16.542,0,30,13.458,30,30s-13.458,30-30,30s-30-13.458-30-30S33.458,22.372,50,22.372    M50,20.372c-17.673,0-32,14.327-32,32c0,17.673,14.327,32,32,32s32-14.327,32-32C82,34.699,67.673,20.372,50,20.372L50,20.372z"/>
	<rect x="42" y="15.075" fill="#000000" width="16" height="2.517"/>
	<path fill="#000000" d="M80.011,35.359c0,0-0.166-0.268-0.455-0.737c-0.3-0.448-0.681-1.186-1.223-1.896   c-0.265-0.367-0.551-0.765-0.854-1.185c-0.289-0.428-0.68-0.836-1.036-1.283c-0.37-0.438-0.733-0.908-1.165-1.33   c-0.418-0.435-0.842-0.876-1.266-1.318c-0.454-0.41-0.908-0.821-1.355-1.225c-0.435-0.419-0.916-0.767-1.365-1.124   c-0.458-0.344-0.872-0.718-1.317-1c-0.436-0.294-0.848-0.572-1.229-0.829c-0.75-0.532-1.446-0.86-1.9-1.144   c-0.464-0.268-0.729-0.42-0.729-0.42l0.936-1.768c0,0,0.321,0.083,0.867,0.274c0.272,0.1,0.603,0.221,0.981,0.36   c0.386,0.133,0.814,0.296,1.246,0.538c0.444,0.222,0.925,0.468,1.421,0.751c0.508,0.265,0.993,0.619,1.505,0.974   c0.502,0.366,1.061,0.701,1.534,1.154c0.493,0.431,0.993,0.869,1.494,1.307c0.452,0.487,0.904,0.975,1.35,1.455   c0.464,0.463,0.819,1.008,1.199,1.5c0.373,0.503,0.73,0.97,1.023,1.482c0.307,0.497,0.57,0.981,0.812,1.424   c0.265,0.44,0.431,0.851,0.565,1.213c0.144,0.362,0.269,0.678,0.372,0.938c0.199,0.524,0.29,0.838,0.29,0.838L80.011,35.359z"/>
	<circle fill="#000000" cx="50" cy="52.372" r="3.542"/>
	<polygon fill="#000000" points="48.499,50.871 69.166,32.499 69.873,33.206 51.502,53.874  "/>
	<polygon fill="#000000" points="48.593,53.962 36.554,41.149 37.216,40.4 51.406,50.78  "/>
</g>
</svg>